<?xml version="1.0" encoding="utf-8"?>
<svg viewBox="160.838 79.813 293.215 260.546" xmlns="http://www.w3.org/2000/svg">
  <defs>
    <filter id="gaussian-blur-filter-0" color-interpolation-filters="sRGB" x="-500%" y="-500%" width="1000%" height="1000%">
      <feGaussianBlur stdDeviation="0.1 0.1" edgeMode="none"/>
    </filter>
  </defs>
  <path style="fill-rule: nonzero; paint-order: fill; stroke: rgb(0, 0, 0); stroke-width: 0px;" d="M 54.934 177.158 L 62.753 172.236 L 70.57 167.313 L 80.414 161.1 L 90.258 154.884 L 103.982 148.205 L 117.705 141.526 L 130.644 135.963 L 143.576 130.406 C 143.576 130.406 149.93 128.63 156.319 126.882 C 162.71 125.131 169.137 123.41 169.29 123.515 C 169.441 123.619 175.171 122.949 180.863 122.248 C 186.553 121.547 192.206 120.824 192.206 120.824 L 204.045 120.613 L 215.885 120.402 L 228.175 122.428 L 240.464 124.453 L 254.047 128.993 L 267.633 133.531 L 277.545 138.456 L 287.459 143.383 L 298.135 150.334 L 308.813 157.289 C 308.813 157.289 312.252 160.299 315.688 163.324 C 319.128 166.351 322.567 169.389 322.567 169.439 C 322.567 169.493 323.624 171.2 324.675 172.894 C 325.732 174.588 326.788 176.27 326.788 176.27 C 326.788 176.27 328.725 177.092 330.672 177.916 C 332.618 178.741 334.571 179.576 334.597 179.604 C 334.625 179.628 335.842 180.204 337.067 180.788 C 338.29 181.369 339.518 181.961 339.573 182.017 C 339.623 182.072 340.31 183.393 340.982 184.694 C 341.651 185.997 342.309 187.289 342.309 187.289 L 342.659 189.879 L 343.01 192.472 C 343.01 192.472 344.959 193.647 346.92 194.819 C 348.884 195.993 350.858 197.169 350.912 197.169 C 350.963 197.169 354.369 198.551 357.76 199.929 C 361.148 201.311 364.527 202.69 364.527 202.69 L 372.722 205.919 L 380.92 209.148 L 389.34 212.212 L 397.761 215.275 L 405.833 218.751 L 413.911 222.227 L 419.669 222.26 L 425.429 222.29 L 437.514 222.422 L 449.602 222.559 C 449.602 222.559 450.119 224.001 450.642 225.454 C 451.16 226.906 451.681 228.368 451.681 228.395 C 451.681 228.424 450.715 230.045 449.742 231.667 C 448.775 233.283 447.805 234.893 447.805 234.893 C 447.805 234.893 447.045 236.242 446.288 237.615 C 445.528 238.987 444.767 240.382 444.771 240.471 C 444.771 240.56 444.446 241.906 444.125 243.241 C 443.801 244.58 443.479 245.908 443.479 245.965 C 443.479 246.018 443.741 247.004 444.02 247.975 C 444.295 248.945 444.585 249.904 444.64 249.904 C 444.692 249.904 444.233 251.422 443.761 252.942 C 443.282 254.465 442.798 255.982 442.798 255.982 L 441.162 260.352 L 439.527 264.722 L 437.897 267.168 L 436.273 269.613 C 436.273 269.613 435.708 270.222 435.138 270.826 C 434.567 271.434 433.99 272.045 433.964 272.045 C 433.935 272.045 433.142 272.357 432.359 272.665 C 431.573 272.975 430.794 273.287 430.794 273.287 L 429.511 273.709 L 428.229 274.127 L 428.546 276.051 L 428.864 277.975 L 428.705 279.784 L 428.546 281.593 C 428.546 281.593 428.391 282.461 428.235 283.341 C 428.082 284.221 427.927 285.103 427.927 285.13 C 427.927 285.157 427.284 286.101 426.636 287.042 C 425.988 287.977 425.33 288.911 425.305 288.911 C 425.279 288.911 424.563 289.854 423.857 290.792 C 423.147 291.734 422.444 292.677 422.444 292.677 L 419.649 294.067 L 416.855 295.458 L 413.455 296.385 L 410.055 297.311 L 404.944 298.649 L 399.837 299.986 L 391.574 302.536 L 383.311 305.083 L 377.784 307.063 L 372.256 309.042 L 366.205 311.235 L 360.152 313.429 L 355.722 316.398 L 351.295 319.369 L 347.378 324.309 L 343.461 329.251 L 341.631 324.682 L 339.804 320.115 L 335.739 322.823 L 331.679 325.531 C 331.679 325.531 329.943 327.199 328.203 328.862 C 326.459 330.529 324.712 332.196 324.686 332.196 C 324.658 332.196 324.758 329.65 324.867 327.103 C 324.972 324.56 325.087 322.013 325.087 322.013 L 324.969 319.846 L 324.854 317.681 L 321.593 319.467 L 318.334 321.257 C 318.334 321.257 317.333 322.132 316.307 323.022 C 315.278 323.918 314.223 324.832 314.115 324.912 C 314.009 324.995 312.868 326.263 311.753 327.51 C 310.641 328.76 309.554 329.988 309.554 329.988 C 309.554 329.988 308.996 331.006 308.426 332.036 C 307.857 333.07 307.272 334.112 307.218 334.169 C 307.162 334.223 306.878 335.082 306.61 335.929 C 306.342 336.773 306.086 337.6 306.086 337.6 L 303.38 333.413 L 300.673 329.225 L 299.603 326.498 L 298.531 323.773 C 298.531 323.773 297.821 325.181 297.118 326.6 C 296.414 328.014 295.714 329.438 295.744 329.466 C 295.767 329.496 295.331 332.342 294.888 335.182 C 294.441 338.02 293.991 340.853 293.991 340.853 L 293.75 347.04 L 293.511 353.227 L 293.711 359.163 L 293.909 365.102 L 293.953 370.261 L 294.003 375.424 C 294.003 375.424 294.316 377.055 294.632 378.699 C 294.948 380.35 295.264 382.006 295.264 382.063 C 295.264 382.116 295.581 383.432 295.898 384.728 C 296.214 386.027 296.532 387.315 296.532 387.315 L 294.564 385.858 L 292.601 384.405 L 290.423 381.585 L 288.247 378.763 L 285.82 382.975 L 283.396 387.19 L 281.068 390.715 L 278.746 394.241 L 275.167 398.839 L 271.585 403.439 L 268.324 405.713 L 265.066 407.988 L 260.506 410.433 L 255.95 412.88 L 250.222 414.126 L 244.492 415.375 L 238.754 415.121 L 233.016 414.874 L 227.695 415.024 L 222.379 415.175 L 217.286 417.625 L 212.196 420.074 L 208.128 422.05 L 204.057 424.026 L 199.756 426.802 L 195.453 429.581 L 195.219 423.486 L 194.99 417.392 L 194.657 412.659 L 194.322 407.928 L 191.949 407.017 L 189.576 406.105 L 183.066 406.573 L 176.554 407.039 L 167.51 407.603 L 158.465 408.168 L 151.478 407.553 L 144.49 406.938 L 136.761 405.089 L 129.03 403.242 L 124.12 401.045 L 119.212 398.851 L 115.478 396.33 L 111.743 393.809 L 109.551 391.779 L 107.361 389.751 L 111.646 388.663 L 115.933 387.571 C 115.933 387.571 118.636 386.879 121.346 386.185 C 124.054 385.492 126.772 384.798 126.801 384.798 C 126.827 384.798 125.149 383.941 123.47 383.081 C 121.784 382.224 120.093 381.367 120.093 381.367 L 118.357 380.712 L 116.617 380.058 L 117.467 374.922 L 118.322 369.788 C 118.322 369.788 117.591 367.601 116.861 365.406 C 116.134 363.215 115.405 361.011 115.405 360.985 C 115.405 360.957 114.877 359.338 114.352 357.724 C 113.823 356.111 113.298 354.504 113.298 354.504 C 113.298 354.504 112.123 352.373 110.93 350.277 C 109.742 348.182 108.538 346.116 108.483 346.255 C 108.431 346.392 107.585 344.964 106.752 343.503 C 105.92 342.04 105.101 340.545 105.101 340.545 L 101.467 336.152 L 97.833 331.758 L 100.577 326.505 L 103.318 321.251 L 104.02 318.711 L 104.725 316.174 L 105.867 312.661 L 107.007 309.15 L 109.219 305.695 L 111.433 302.24 L 109.446 299.364 L 107.458 296.487 C 107.458 296.487 108.088 294.842 108.727 293.187 C 109.368 291.534 110.01 289.874 110.038 289.847 C 110.062 289.817 113.996 286.666 117.922 283.523 C 121.849 280.381 125.768 277.247 125.768 277.247 L 131.874 272.341 L 137.985 267.432 L 142.545 262.693 L 147.108 257.952 L 140.315 256.226 L 133.523 254.498 L 126.654 253.75 L 119.785 253.003 C 119.785 253.003 117.783 252.909 115.784 252.817 C 113.788 252.718 111.787 252.613 111.787 252.586 C 111.787 252.558 109.545 251.838 107.297 251.13 C 105.049 250.418 102.793 249.716 102.766 249.716 C 102.74 249.716 100.336 248.461 97.936 247.206 C 95.537 245.954 93.146 244.7 93.146 244.7 L 89.935 242.34 L 86.728 239.983 L 83.28 236.989 L 79.835 233.995 L 74.971 229.397 L 70.111 224.801 L 67.272 221.937 L 64.435 219.071 L 60.904 215.184 L 57.374 211.295 L 56.783 210.263 L 56.195 209.238 L 58.008 204.66 L 59.823 200.088 L 61.118 196.323 L 62.414 192.556 L 59.678 188.244 L 56.94 183.937 L 55.935 180.547 Z">
    <title>Overlay</title>
  </path>
  <path style="stroke-width: 0px; filter: url(#gaussian-blur-filter-0); stroke: rgb(0, 0, 0); fill: rgb(255, 225, 0);" d="M 270.634 178.709 L 266.878 176.906 L 263.117 175.103 L 258.129 171.27 L 253.136 167.435 C 253.136 167.435 251.316 166.486 249.479 165.523 C 247.64 164.559 245.787 163.583 245.721 163.534 C 245.654 163.484 243.738 162.995 241.836 162.518 C 239.931 162.042 238.04 161.579 238.025 161.579 C 238.008 161.579 235.961 161.368 233.911 161.16 C 231.861 160.949 229.811 160.737 229.796 160.737 C 229.782 160.737 227.917 160.946 226.055 161.155 C 224.194 161.371 222.335 161.588 222.335 161.602 C 222.335 161.616 220.655 162.046 218.973 162.467 C 217.287 162.893 215.602 163.312 215.588 163.312 C 215.571 163.312 213.985 163.887 212.399 164.462 C 210.812 165.031 209.227 165.603 209.212 165.603 C 209.199 165.603 207.389 166.382 205.583 167.164 C 203.772 167.945 201.966 168.733 201.951 168.747 C 201.939 168.761 200.592 169.41 199.25 170.05 C 197.908 170.697 196.572 171.336 196.572 171.336 C 196.572 171.336 194.95 172.349 193.323 173.361 C 191.696 174.372 190.068 175.382 190.051 175.382 C 190.036 175.382 188.468 176.385 186.903 177.391 C 185.338 178.393 183.774 179.394 183.774 179.394 C 183.774 179.394 182.876 180.058 181.969 180.728 C 181.062 181.4 180.148 182.085 180.12 182.127 C 180.09 182.174 179.366 182.764 178.642 183.35 C 177.919 183.934 177.2 184.509 177.184 184.523 C 177.17 184.538 177.089 185.013 177.031 185.509 C 176.967 186.004 176.919 186.518 176.961 186.604 C 177.005 186.698 176.967 187.428 176.934 188.146 C 176.901 188.869 176.865 189.577 176.911 189.621 C 176.952 189.67 177.727 190.838 178.491 191.997 C 179.255 193.158 180.005 194.303 180.005 194.303 L 182.683 196.628 L 185.358 198.946 L 184.599 192.357 L 183.846 185.764 C 183.846 185.764 185.389 184.66 186.933 183.559 C 188.477 182.454 190.026 181.356 190.04 181.363 C 190.068 181.377 192.171 180.154 194.277 178.926 C 196.387 177.697 198.505 176.457 198.572 176.442 C 198.635 176.426 201.924 175.071 205.197 173.716 C 208.471 172.364 211.726 171.014 211.726 171.014 C 211.726 171.014 213.88 170.436 216.042 169.862 C 218.209 169.284 220.384 168.715 220.426 168.73 C 220.469 168.747 222.205 168.453 223.927 168.154 C 225.648 167.854 227.363 167.552 227.363 167.552 L 230.719 167.753 L 234.078 167.955 C 234.078 167.955 235.807 168.451 237.547 168.943 C 239.282 169.439 241.022 169.934 241.037 169.934 C 241.052 169.934 242.661 171.084 244.273 172.232 C 245.879 173.382 247.492 174.528 247.506 174.528 C 247.522 174.528 248.912 176.042 250.308 177.554 C 251.705 179.064 253.102 180.576 253.133 180.576 C 253.159 180.576 254.246 182.345 255.328 184.115 C 256.415 185.889 257.499 187.674 257.528 187.702 C 257.556 187.735 257.957 189.036 258.357 190.33 C 258.753 191.628 259.153 192.914 259.18 192.914 C 259.208 192.914 259.26 191.238 259.308 189.558 C 259.353 187.884 259.398 186.202 259.414 186.202 C 259.428 186.202 259.486 184.339 259.539 182.477 C 259.592 180.612 259.64 178.748 259.64 178.748 C 259.64 178.748 262.466 178.758 265.254 178.758 C 268.04 178.758 270.789 178.748 270.634 178.709 Z M 248.152 197.456 L 247.169 196.684 L 246.182 195.908 L 242.624 196.873 L 239.069 197.84 L 235.891 198.988 L 232.711 200.135 L 229.21 200.813 L 225.71 201.488 L 221.07 201.91 L 216.428 202.329 L 209.955 201.732 L 203.48 201.137 L 199.26 199.664 L 195.042 198.192 L 191.63 195.741 L 188.216 193.287 L 185.784 190.564 L 183.348 187.84 L 180.54 189.594 L 177.731 191.344 L 180.676 194.973 L 183.619 198.602 L 187.099 201.102 L 190.578 203.604 L 194.588 205.038 L 198.593 206.473 L 203.835 207.397 L 209.081 208.317 C 209.081 208.317 212.053 208.217 215.046 208.118 C 218.039 208.017 221.056 207.916 221.149 207.916 C 221.239 207.916 224.314 207.046 227.366 206.176 C 230.419 205.31 233.452 204.44 233.452 204.44 C 233.452 204.44 235.453 203.577 237.475 202.713 C 239.492 201.852 241.531 200.99 241.59 200.99 C 241.652 200.99 243.398 200.318 245.075 199.539 C 246.755 198.765 248.366 197.878 248.152 197.456 Z M 200.805 184.203 L 203.184 182.369 L 205.562 180.535 L 208.516 178.994 L 211.469 177.45 L 215.304 176.308 L 219.138 175.162 L 222.962 174.491 L 226.78 173.818 L 230.808 174.465 L 234.836 175.113 L 238.293 176.347 L 241.747 177.584 C 241.747 177.584 242.966 178.393 244.187 179.206 C 245.409 180.015 246.635 180.826 246.649 180.826 C 246.665 180.826 247.386 181.655 248.103 182.484 C 248.821 183.31 249.536 184.137 249.536 184.137 C 249.536 184.137 249.808 184.782 250.077 185.436 C 250.348 186.093 250.619 186.759 250.619 186.81 C 250.619 186.86 250.054 187.557 249.489 188.238 C 248.924 188.922 248.361 189.591 248.361 189.591 L 246.824 190.882 L 245.29 192.175 C 245.29 192.175 243.993 192.42 242.691 192.668 C 241.385 192.914 240.079 193.16 240.063 193.16 C 240.045 193.16 239.118 193.164 238.197 193.17 C 237.273 193.174 236.353 193.18 236.353 193.18 L 234.825 193.09 L 233.296 193.004 L 232.397 192.739 L 231.495 192.472 L 230.784 192.089 L 230.072 191.708 C 230.072 191.708 230.33 191.566 230.599 191.423 C 230.868 191.285 231.148 191.144 231.175 191.144 C 231.209 191.144 231.775 190.982 232.339 190.819 C 232.903 190.659 233.463 190.498 233.477 190.498 C 233.492 190.498 234.081 190.39 234.663 190.283 C 235.249 190.175 235.829 190.069 235.829 190.069 C 235.829 190.069 236.408 189.877 237 189.687 C 237.594 189.494 238.198 189.307 238.246 189.307 C 238.297 189.307 238.802 189.016 239.3 188.727 C 239.798 188.438 240.291 188.146 240.306 188.146 C 240.321 188.146 240.715 187.87 241.101 187.57 C 241.489 187.273 241.869 186.953 241.848 186.869 C 241.836 186.784 241.98 186.435 242.107 186.06 C 242.233 185.685 242.337 185.285 242.241 185.099 C 242.146 184.913 241.662 184.576 241.163 184.263 C 240.664 183.951 240.149 183.655 239.987 183.555 C 239.827 183.455 239.222 183.208 238.639 182.979 C 238.059 182.751 237.508 182.536 237.46 182.506 C 237.411 182.473 236.719 182.15 236.03 181.838 C 235.346 181.526 234.667 181.224 234.647 181.236 C 234.626 181.245 233.68 181.038 232.748 180.822 C 231.816 180.608 230.902 180.39 230.943 180.387 C 230.988 180.381 229.99 180.258 228.992 180.13 C 227.996 180.001 226.999 179.866 227.049 179.839 C 227.094 179.814 225.917 179.868 224.746 179.924 C 223.573 179.982 222.414 180.046 222.501 180.028 C 222.593 180.013 221.486 180.183 220.353 180.357 C 219.222 180.529 218.067 180.703 218.055 180.697 C 218.042 180.689 217.059 180.842 216.058 180.992 C 215.058 181.147 214.033 181.301 213.947 181.301 C 213.857 181.301 212.927 181.636 212.016 181.964 C 211.106 182.291 210.214 182.608 210.207 182.577 C 210.202 182.543 209.293 182.831 208.386 183.121 C 207.478 183.407 206.567 183.696 206.555 183.675 C 206.542 183.65 205.382 184.003 204.225 184.365 C 203.064 184.727 201.905 185.099 201.888 185.118 C 201.873 185.135 201.518 184.901 201.206 184.666 C 200.898 184.432 200.636 184.191 200.805 184.203 Z M 329.458 184.036 L 327.681 183.69 L 325.902 183.343 L 323.712 183.359 L 321.524 183.376 L 317.715 184.009 L 313.905 184.646 C 313.905 184.646 312.199 185.152 310.49 185.666 C 308.782 186.179 307.073 186.698 307.063 186.714 C 307.057 186.727 305.75 187.375 304.448 188.018 C 303.144 188.656 301.844 189.298 301.844 189.298 L 300.125 190.844 L 298.401 192.394 L 296.197 195.286 L 294 198.176 L 296.44 197.371 L 298.873 196.568 L 300.469 195.288 L 302.064 194.01 L 303.894 192.973 L 305.717 191.931 C 305.717 191.931 306.723 191.488 307.737 191.044 C 308.75 190.603 309.778 190.157 309.822 190.161 C 309.872 190.163 311 189.915 312.119 189.67 C 313.238 189.42 314.349 189.175 314.356 189.175 C 314.364 189.175 315.407 189.031 316.459 188.889 C 317.508 188.751 318.563 188.61 318.584 188.62 C 318.608 188.627 319.725 188.606 320.869 188.59 C 322.01 188.578 323.176 188.572 323.288 188.613 C 323.399 188.654 324.447 188.847 325.471 189.036 C 326.492 189.222 327.491 189.397 327.509 189.41 C 327.527 189.42 328.281 189.647 329.071 189.898 C 329.861 190.151 330.683 190.425 330.827 190.534 C 330.973 190.64 331.492 190.939 332 191.254 C 332.511 191.566 333.012 191.894 333.119 192.061 C 333.229 192.225 333.705 192.348 334.175 192.43 C 334.638 192.512 335.088 192.553 335.145 192.562 C 335.198 192.568 335.467 192.562 335.766 192.517 C 336.063 192.472 336.384 192.387 336.55 192.238 C 336.717 192.089 336.982 191.875 337.209 191.636 C 337.435 191.397 337.618 191.128 337.629 190.875 C 337.636 190.62 337.521 190.341 337.386 190.032 C 337.252 189.725 337.094 189.388 337.012 189.029 C 336.928 188.667 336.439 188.231 335.945 187.853 C 335.448 187.475 334.948 187.153 334.853 187.03 C 334.753 186.905 334.112 186.481 333.499 186.088 C 332.882 185.694 332.291 185.331 332.291 185.331 L 330.873 184.684 Z M 316.815 191.719 L 318.132 192.109 L 319.453 192.496 C 319.453 192.496 320.131 192.924 320.82 193.353 C 321.505 193.778 322.194 194.207 322.205 194.207 C 322.217 194.207 322.678 194.595 323.137 194.981 C 323.597 195.366 324.055 195.754 324.06 195.754 C 324.066 195.754 324.358 196.087 324.658 196.416 C 324.954 196.751 325.255 197.085 325.278 197.098 C 325.302 197.11 325.547 197.506 325.792 197.913 C 326.037 198.315 326.282 198.732 326.305 198.784 C 326.329 198.834 326.6 199.31 326.876 199.782 C 327.148 200.258 327.418 200.727 327.44 200.763 C 327.461 200.8 327.645 201.272 327.816 201.73 C 327.992 202.189 328.155 202.637 328.139 202.621 C 328.121 202.606 328.16 203.205 328.198 203.814 C 328.235 204.421 328.275 205.042 328.257 205.074 C 328.24 205.104 327.706 205.293 327.148 205.481 C 326.585 205.669 326 205.855 325.877 205.879 C 325.754 205.907 325.337 206.003 324.951 206.088 C 324.564 206.176 324.209 206.258 324.201 206.254 C 324.196 206.254 323.783 206.268 323.334 206.285 C 322.884 206.297 322.401 206.31 322.266 206.299 C 322.127 206.293 321.638 206.243 321.149 206.195 C 320.659 206.148 320.172 206.104 320.038 206.104 C 319.907 206.104 319.38 206.048 318.868 205.982 C 318.355 205.919 317.864 205.846 317.807 205.822 C 317.746 205.802 317.233 205.644 316.706 205.496 C 316.181 205.345 315.64 205.2 315.531 205.194 C 315.422 205.187 315.01 205.06 314.59 204.928 C 314.174 204.792 313.751 204.651 313.629 204.612 C 313.505 204.569 313.091 204.371 312.715 204.19 C 312.332 204.012 311.992 203.848 312.012 203.876 C 312.03 203.904 311.75 203.7 311.411 203.447 C 311.074 203.197 310.685 202.902 310.478 202.753 C 310.273 202.603 309.889 202.329 309.54 202.069 C 309.194 201.815 308.885 201.575 308.831 201.5 C 308.779 201.424 308.378 201.055 307.986 200.694 C 307.592 200.332 307.203 199.977 307.161 199.94 C 307.117 199.902 306.873 199.612 306.617 199.31 C 306.366 199.006 306.099 198.694 306.022 198.609 C 305.943 198.525 305.666 197.985 305.407 197.464 C 305.147 196.935 304.907 196.422 304.893 196.388 C 304.883 196.353 304.87 196.057 304.858 195.735 C 304.848 195.413 304.843 195.071 304.843 194.943 C 304.843 194.819 305.051 194.377 305.267 193.971 C 305.485 193.56 305.71 193.187 305.739 193.192 C 305.769 193.198 306.537 192.849 307.301 192.498 C 308.069 192.148 308.827 191.796 308.839 191.796 C 308.852 191.796 309.652 191.623 310.457 191.454 C 311.262 191.281 312.074 191.115 312.111 191.128 C 312.146 191.14 312.733 191.144 313.309 191.148 C 313.888 191.151 314.461 191.151 314.472 191.157 M 335.704 196.452 L 346.906 200.277 L 358.111 204.103 L 368.008 207.855 L 377.904 211.607 C 377.904 211.607 382.293 213.185 386.683 214.771 C 391.073 216.357 395.463 217.951 395.463 217.976 C 395.463 218.003 397.621 219.146 399.779 220.28 C 401.938 221.418 404.099 222.55 404.099 222.55 L 407.997 223.832 L 411.892 225.117 L 416.761 225.412 L 421.631 225.71 L 424.11 225.243 L 426.59 224.778 L 425.557 226.93 L 424.523 229.082 C 424.523 229.082 424.08 230.138 423.64 231.2 C 423.196 232.26 422.754 233.329 422.754 233.356 C 422.754 233.381 422.679 234.752 422.613 236.146 C 422.551 237.543 422.5 238.965 422.548 239.089 C 422.595 239.216 422.679 240.381 422.743 241.527 C 422.813 242.671 422.867 243.798 422.867 243.849 C 422.867 243.899 423.631 244.762 424.396 245.612 C 425.154 246.463 425.917 247.3 425.917 247.3 C 425.917 247.3 426.678 247.647 427.481 248.039 C 428.284 248.425 429.125 248.858 429.287 249.03 C 429.449 249.201 430.666 249.532 431.857 249.815 C 433.049 250.1 434.218 250.341 434.291 250.341 C 434.363 250.341 435.374 250.301 436.377 250.262 C 437.382 250.223 438.38 250.184 438.428 250.184 C 438.476 250.184 439.41 250.184 440.335 250.184 C 441.259 250.184 442.179 250.184 442.203 250.184 C 442.227 250.184 441.467 251.731 440.701 253.282 C 439.931 254.829 439.158 256.381 439.158 256.381 L 438.61 258.291 L 438.062 260.204 L 437.425 262.06 L 436.788 263.917 C 436.788 263.917 436.096 264.782 435.4 265.645 C 434.703 266.511 434.001 267.376 433.977 267.376 C 433.952 267.376 432.724 268.009 431.498 268.649 C 430.279 269.291 429.058 269.939 429.058 269.963 C 429.058 269.989 427.544 270.235 426.03 270.473 C 424.516 270.717 423.001 270.948 423.001 270.948 L 419.301 271.505 L 415.596 272.059 L 412.963 272.4 L 410.326 272.744 L 404.664 273.856 L 399.001 274.967 L 394.505 275.519 L 390.008 276.074 L 384.918 276.95 L 379.829 277.827 L 374.219 278.856 L 368.614 279.891 L 366.394 280.222 L 364.176 280.556 L 360.413 281.169 L 356.655 281.788 L 353.932 282.345 L 351.209 282.906 L 349.343 284.084 L 347.478 285.265 L 346.958 287.267 L 346.443 289.274 C 346.443 289.274 346.463 289.184 346.478 289.107 C 346.497 289.03 346.515 288.968 346.515 289.018 C 346.515 289.067 346.423 289.973 346.328 290.864 C 346.238 291.759 346.143 292.639 346.143 292.639 L 348.588 291.286 L 351.032 289.934 L 354.707 288.633 L 358.383 287.333 L 363.108 286.101 L 367.833 284.872 L 372.445 284.013 L 377.059 283.151 L 382.734 282.191 L 388.409 281.23 C 388.409 281.23 390.695 280.814 392.99 280.402 C 395.289 279.985 397.6 279.572 397.649 279.572 C 397.696 279.572 400.086 279.204 402.462 278.835 C 404.837 278.469 407.203 278.1 407.203 278.1 L 411.329 277.807 L 415.455 277.519 C 415.455 277.519 416.477 277.608 417.51 277.7 C 418.548 277.794 419.604 277.887 419.676 277.887 C 419.748 277.887 421.097 278.09 422.427 278.296 C 423.76 278.501 425.072 278.705 425.072 278.705 C 425.072 278.705 425.071 279.764 425.067 280.831 C 425.064 281.895 425.06 282.966 425.06 282.993 C 425.06 283.016 424.636 284.069 424.209 285.116 C 423.789 286.166 423.362 287.204 423.362 287.204 L 421.872 288.978 L 420.381 290.747 L 415.485 291.989 L 410.591 293.231 L 405.903 294.832 L 401.218 296.434 L 393.659 298.853 L 386.104 301.276 L 380.503 303.177 L 374.905 305.077 L 369.804 307.025 L 364.704 308.972 C 364.704 308.972 362.403 310.182 360.077 311.394 C 357.75 312.607 355.4 313.817 355.297 313.817 C 355.195 313.817 353.053 315.097 350.938 316.376 C 348.823 317.657 346.737 318.937 346.737 318.937 L 348.972 315.217 L 351.209 311.493 L 348.552 312.475 L 345.893 313.456 L 339.263 316.749 L 332.631 320.039 C 332.631 320.039 333.788 319.465 334.197 319.285 C 334.608 319.105 334.272 319.316 331.288 320.893 C 328.305 322.463 327.944 322.068 328.325 321.278 C 328.71 320.488 329.838 319.303 329.838 319.303 L 339.026 310.207 L 348.211 301.114 C 348.211 301.114 341.818 304.49 335.414 307.862 C 329.012 311.238 322.595 314.614 322.545 314.614 C 322.498 314.614 326.673 312.826 330.86 311.043 C 335.052 309.26 339.251 307.485 339.251 307.51 C 339.251 307.536 334.779 309.936 330.308 312.336 C 325.84 314.73 321.369 317.123 321.369 317.123 C 321.369 317.123 321.309 316.615 321.252 316.105 C 321.197 315.592 321.149 315.07 321.172 315.046 C 321.197 315.017 322.796 312.875 324.393 310.741 C 325.984 308.604 327.575 306.474 327.575 306.474 L 319.828 314.864 L 312.084 323.254 L 323.33 311.218 L 334.577 299.177 L 332.698 299.738 L 330.819 300.303 L 328.168 301.914 L 325.524 303.525 L 322.914 306.036 L 320.305 308.547 C 320.305 308.547 320.635 308.397 320.882 308.257 C 321.127 308.118 321.29 307.993 320.956 308.045 C 320.618 308.101 318.51 310.68 316.484 313.254 C 314.461 315.821 312.522 318.377 312.522 318.377 L 310.346 321.524 L 308.17 324.674 L 307.365 320.561 L 306.56 316.449 L 307.482 313.088 L 308.408 309.729 L 310.612 306.594 L 312.812 303.458 L 314.925 300.63 L 317.038 297.799 L 318.511 295.736 L 319.991 293.678 C 319.991 293.678 320.948 292.667 321.904 291.658 C 322.858 290.647 323.806 289.639 323.783 289.639 C 323.761 289.639 324.452 288.642 325.151 287.646 C 325.852 286.654 326.558 285.659 326.558 285.659 C 326.558 285.659 324.661 286.222 322.759 286.785 C 320.853 287.35 318.942 287.915 318.917 287.915 C 318.89 287.915 316.732 288.655 314.58 289.398 C 312.427 290.14 310.28 290.883 310.28 290.883 L 312.716 287.769 L 315.154 284.66 C 315.154 284.66 316.073 283.401 317.011 282.133 C 317.942 280.86 318.89 279.578 318.94 279.527 C 318.985 279.478 319.29 278.827 319.582 278.192 C 319.876 277.556 320.157 276.932 320.157 276.932 L 321.944 273.291 L 323.738 269.651 L 323.117 269.906 L 322.498 270.162 L 321.045 270.923 L 319.597 271.682 C 319.597 271.682 318.584 272.262 317.559 272.855 C 316.533 273.452 315.492 274.066 315.432 274.137 C 315.368 274.205 315.932 273.814 316.014 273.729 C 316.097 273.645 315.698 273.869 313.715 275.17 C 311.733 276.469 310.406 277.133 309.575 277.473 C 308.744 277.814 308.408 277.83 308.408 277.83 L 307.232 276.676 L 306.055 275.522 L 308.966 272.318 L 311.878 269.111 L 314.019 266.806 L 316.164 264.497 C 316.164 264.497 316.839 262.885 317.545 261.253 C 318.247 259.62 318.984 257.964 319.104 257.889 C 319.224 257.812 319.922 256.444 320.591 255.089 C 321.258 253.731 321.897 252.388 321.897 252.362 C 321.897 252.336 322.124 250.981 322.364 249.577 C 322.603 248.173 322.857 246.724 322.908 246.51 C 322.959 246.297 323.161 245.032 323.352 243.809 C 323.541 242.586 323.719 241.401 323.719 241.352 C 323.719 241.298 324.192 240.264 324.661 239.211 C 325.131 238.16 325.603 237.085 325.603 236.957 C 325.603 236.827 325.575 235.85 325.547 234.839 C 325.521 233.832 325.493 232.787 325.493 232.533 C 325.493 232.278 325.464 231.383 325.437 230.511 C 325.405 229.634 325.379 228.779 325.379 228.599 C 325.379 228.42 325.12 228.007 324.861 227.632 C 324.604 227.257 324.343 226.923 324.343 226.896 C 324.343 226.874 323.51 226.892 322.678 226.919 C 321.846 226.946 321.015 226.98 321.015 226.98 C 321.015 226.98 320.449 226.896 319.876 226.817 C 319.306 226.737 318.727 226.656 318.704 226.656 C 318.676 226.656 317.652 226.34 316.636 226.021 C 315.619 225.707 314.609 225.392 314.609 225.392 L 317.29 223.217 L 319.973 221.041 C 319.973 221.041 320.751 220.352 321.541 219.665 C 322.331 218.974 323.134 218.288 323.183 218.288 C 323.23 218.288 324.082 217.586 324.959 216.86 C 325.834 216.132 326.734 215.378 326.879 215.28 C 327.023 215.175 327.749 214.248 328.443 213.323 C 329.141 212.401 329.806 211.484 329.831 211.408 C 329.853 211.33 330.377 210.772 330.916 210.204 C 331.45 209.638 331.998 209.064 332.071 208.962 C 332.142 208.858 332.008 207.972 331.853 207.077 C 331.695 206.19 331.525 205.297 331.525 205.197 C 331.525 205.092 331.619 204.406 331.694 203.677 C 331.766 202.949 331.823 202.18 331.75 201.925 C 331.679 201.667 331.546 200.547 331.428 199.495 C 331.312 198.438 331.213 197.45 331.213 197.45 L 333.457 196.949 Z M 433.876 225.798 L 437.974 225.562 L 442.068 225.323 L 444.73 225.407 L 447.395 225.496 L 447.574 227.119 L 447.751 228.737 L 446.46 230.068 L 445.167 231.394 L 444.216 232.456 L 443.262 233.519 L 442.534 235.234 L 441.808 236.947 L 441.011 241.464 L 440.212 245.981 C 440.212 245.981 438.534 245.981 436.855 245.978 C 435.173 245.978 433.486 245.974 433.473 245.974 C 433.457 245.974 431.514 244.928 429.574 243.882 C 427.637 242.832 425.698 241.779 425.698 241.765 C 425.698 241.747 425.695 239.524 425.685 237.302 C 425.68 235.08 425.67 232.854 425.67 232.84 C 425.67 232.819 426.03 231.483 426.387 230.148 C 426.745 228.807 427.1 227.472 427.1 227.455 C 427.1 227.439 428.78 226.973 430.471 226.538 C 432.157 226.101 433.853 225.694 433.876 225.798 Z"/>
</svg>