<?xml version="1.0" encoding="utf-8"?>
<svg viewBox="71.554 106.536 363.383 294.657" xmlns="http://www.w3.org/2000/svg">
  <defs>
    <filter id="gaussian-blur-filter-0" color-interpolation-filters="sRGB" x="-500%" y="-500%" width="1000%" height="1000%">
      <feGaussianBlur stdDeviation="0.1 0.1" edgeMode="none"/>
    </filter>
  </defs>
  <path style="fill-rule: nonzero; paint-order: fill; stroke: rgb(0, 0, 0); stroke-width: 0px;" d="M 71.554 160.626 L 78.716 155.935 L 85.875 151.244 L 94.892 145.322 L 103.909 139.399 L 116.478 133.033 L 129.048 126.668 L 140.897 121.367 L 152.743 116.07 C 152.743 116.07 158.562 114.378 164.414 112.711 C 170.267 111.044 176.154 109.404 176.293 109.503 C 176.432 109.603 181.68 108.964 186.893 108.296 C 192.104 107.628 197.282 106.939 197.282 106.939 L 208.126 106.738 L 218.97 106.536 L 230.227 108.467 L 241.483 110.398 L 253.923 114.724 L 266.367 119.049 L 275.445 123.743 L 284.525 128.438 L 294.304 135.063 L 304.083 141.691 C 304.083 141.691 307.234 144.56 310.38 147.443 C 313.531 150.326 316.681 153.223 316.681 153.27 C 316.681 153.322 317.648 154.949 318.612 156.562 C 319.579 158.178 320.547 159.781 320.547 159.781 C 320.547 159.781 322.322 160.564 324.105 161.349 C 325.887 162.136 327.675 162.931 327.7 162.957 C 327.725 162.981 328.839 163.529 329.961 164.086 C 331.082 164.641 332.206 165.203 332.257 165.257 C 332.303 165.309 332.932 166.568 333.547 167.809 C 334.16 169.051 334.763 170.282 334.763 170.282 L 335.083 172.75 L 335.404 175.22 C 335.404 175.22 337.19 176.341 338.986 177.458 C 340.785 178.577 342.592 179.698 342.642 179.698 C 342.689 179.698 345.808 181.015 348.914 182.329 C 352.017 183.645 355.112 184.959 355.112 184.959 L 362.618 188.036 L 370.127 191.114 L 377.838 194.034 L 385.552 196.953 L 392.945 200.266 L 400.343 203.579 L 405.617 203.61 L 410.893 203.638 L 421.962 203.765 L 433.032 203.894 C 433.032 203.894 433.507 205.269 433.985 206.654 C 434.46 208.039 434.937 209.431 434.937 209.456 C 434.937 209.485 434.052 211.03 433.161 212.575 C 432.275 214.116 431.387 215.65 431.387 215.65 C 431.387 215.65 430.691 216.936 429.997 218.244 C 429.301 219.551 428.604 220.881 428.608 220.966 C 428.608 221.051 428.311 222.333 428.016 223.606 C 427.72 224.882 427.425 226.147 427.425 226.202 C 427.425 226.252 427.664 227.192 427.92 228.117 C 428.173 229.042 428.438 229.956 428.488 229.956 C 428.535 229.956 428.115 231.403 427.683 232.851 C 427.244 234.302 426.8 235.749 426.8 235.749 L 425.302 239.912 L 423.805 244.077 L 422.312 246.409 L 420.824 248.739 C 420.824 248.739 420.307 249.319 419.785 249.895 C 419.262 250.474 418.734 251.056 418.709 251.056 C 418.684 251.056 417.957 251.354 417.24 251.648 C 416.521 251.944 415.807 252.24 415.807 252.24 L 414.631 252.642 L 413.457 253.041 L 413.747 254.874 L 414.039 256.708 L 413.893 258.432 L 413.747 260.156 C 413.747 260.156 413.606 260.984 413.463 261.822 C 413.322 262.661 413.18 263.502 413.18 263.528 C 413.18 263.553 412.592 264.453 411.998 265.349 C 411.404 266.24 410.801 267.13 410.779 267.13 C 410.755 267.13 410.1 268.029 409.453 268.923 C 408.803 269.821 408.159 270.72 408.159 270.72 L 405.598 272.044 L 403.04 273.37 L 399.926 274.253 L 396.811 275.136 L 392.13 276.411 L 387.453 277.685 L 379.884 280.115 L 372.316 282.543 L 367.254 284.43 L 362.191 286.316 L 356.648 288.406 L 351.105 290.497 L 347.048 293.327 L 342.993 296.158 L 339.405 300.865 L 335.818 305.575 L 334.142 301.222 L 332.468 296.869 L 328.745 299.45 L 325.026 302.03 C 325.026 302.03 323.437 303.619 321.843 305.205 C 320.245 306.794 318.646 308.383 318.621 308.383 C 318.596 308.383 318.687 305.956 318.787 303.529 C 318.883 301.105 318.988 298.677 318.988 298.677 L 318.88 296.612 L 318.776 294.549 L 315.789 296.252 L 312.804 297.958 C 312.804 297.958 311.886 298.791 310.947 299.639 C 310.005 300.493 309.038 301.364 308.94 301.441 C 308.842 301.52 307.797 302.728 306.777 303.916 C 305.758 305.107 304.762 306.278 304.762 306.278 C 304.762 306.278 304.251 307.248 303.729 308.23 C 303.208 309.215 302.672 310.209 302.622 310.262 C 302.571 310.314 302.312 311.133 302.066 311.94 C 301.82 312.744 301.585 313.533 301.585 313.533 L 299.107 309.542 L 296.628 305.55 L 295.649 302.952 L 294.666 300.355 C 294.666 300.355 294.017 301.697 293.373 303.049 C 292.727 304.397 292.087 305.754 292.113 305.781 C 292.135 305.809 291.734 308.521 291.329 311.228 C 290.92 313.934 290.508 316.633 290.508 316.633 L 290.287 322.529 L 290.069 328.425 L 290.251 334.083 L 290.433 339.742 L 290.474 344.659 L 290.519 349.579 C 290.519 349.579 290.806 351.135 291.095 352.701 C 291.384 354.274 291.673 355.853 291.673 355.907 C 291.673 355.958 291.964 357.212 292.254 358.447 C 292.544 359.685 292.835 360.911 292.835 360.911 L 291.032 359.523 L 289.235 358.139 L 287.24 355.452 L 285.247 352.762 L 283.024 356.776 L 280.804 360.792 L 278.672 364.152 L 276.545 367.513 L 273.266 371.894 L 269.986 376.279 L 266.999 378.446 L 264.014 380.614 L 259.839 382.944 L 255.666 385.276 L 250.42 386.464 L 245.172 387.653 L 239.916 387.413 L 234.66 387.176 L 229.788 387.321 L 224.918 387.464 L 220.254 389.799 L 215.591 392.133 L 211.865 394.016 L 208.137 395.899 L 204.197 398.545 L 200.256 401.193 L 200.043 395.384 L 199.833 389.576 L 199.527 385.065 L 199.221 380.557 L 197.048 379.689 L 194.873 378.82 L 188.911 379.265 L 182.947 379.71 L 174.664 380.247 L 166.379 380.785 L 159.979 380.2 L 153.58 379.613 L 146.5 377.851 L 139.42 376.091 L 134.923 373.997 L 130.426 371.906 L 127.007 369.503 L 123.587 367.101 L 121.579 365.167 L 119.573 363.235 L 123.497 362.197 L 127.424 361.156 C 127.424 361.156 129.899 360.497 132.381 359.836 C 134.862 359.175 137.351 358.513 137.377 358.513 C 137.402 358.513 135.865 357.697 134.327 356.877 C 132.783 356.06 131.235 355.243 131.235 355.243 L 129.643 354.619 L 128.05 353.996 L 128.83 349.101 L 129.612 344.208 C 129.612 344.208 128.942 342.124 128.274 340.033 C 127.608 337.944 126.94 335.843 126.94 335.819 C 126.94 335.792 126.457 334.249 125.975 332.711 C 125.491 331.174 125.011 329.642 125.011 329.642 C 125.011 329.642 123.934 327.612 122.842 325.614 C 121.753 323.617 120.65 321.648 120.6 321.781 C 120.552 321.911 119.778 320.55 119.015 319.159 C 118.253 317.765 117.503 316.339 117.503 316.339 L 114.174 312.153 L 110.846 307.965 L 113.359 302.959 L 115.87 297.952 L 116.513 295.531 L 117.158 293.113 L 118.203 289.764 L 119.249 286.418 L 121.275 283.126 L 123.303 279.834 L 121.482 277.092 L 119.662 274.351 C 119.662 274.351 120.239 272.783 120.824 271.205 C 121.411 269.631 121.999 268.048 122.024 268.022 C 122.047 267.994 125.649 264.991 129.245 261.996 C 132.842 259.002 136.432 256.014 136.432 256.014 L 142.024 251.338 L 147.621 246.66 L 151.798 242.144 L 155.978 237.626 L 149.755 235.981 L 143.535 234.334 L 137.243 233.621 L 130.952 232.909 C 130.952 232.909 129.119 232.82 127.288 232.732 C 125.459 232.637 123.627 232.538 123.627 232.511 C 123.627 232.485 121.573 231.8 119.514 231.124 C 117.455 230.446 115.389 229.776 115.365 229.776 C 115.34 229.776 113.138 228.58 110.94 227.385 C 108.743 226.192 106.553 224.996 106.553 224.996 L 103.612 222.748 L 100.675 220.5 L 97.517 217.648 L 94.361 214.794 L 89.907 210.412 L 85.455 206.032 L 82.855 203.303 L 80.257 200.571 L 77.023 196.867 L 73.79 193.161 L 73.247 192.177 L 72.71 191.199 L 74.37 186.836 L 76.032 182.48 L 77.219 178.89 L 78.406 175.301 L 75.899 171.192 L 73.392 167.087 L 72.472 163.856 Z">
    <title>Overlay</title>
  </path>
  <path style="stroke-width: 0px; filter: url(#gaussian-blur-filter-0); stroke: rgb(0, 0, 0); fill: rgb(255, 225, 0);" d="M 269.115 162.104 L 265.675 160.386 L 262.231 158.668 L 257.661 155.015 L 253.089 151.361 C 253.089 151.361 251.422 150.456 249.739 149.538 C 248.055 148.62 246.358 147.689 246.297 147.643 C 246.236 147.595 244.481 147.129 242.738 146.675 C 240.994 146.221 239.262 145.78 239.248 145.78 C 239.233 145.78 237.358 145.578 235.481 145.38 C 233.603 145.179 231.726 144.977 231.712 144.977 C 231.699 144.977 229.991 145.176 228.285 145.376 C 226.581 145.581 224.878 145.787 224.878 145.8 C 224.878 145.816 223.339 146.224 221.799 146.626 C 220.255 147.032 218.711 147.431 218.698 147.431 C 218.683 147.431 217.23 147.978 215.777 148.526 C 214.324 149.069 212.873 149.614 212.859 149.614 C 212.847 149.614 211.189 150.357 209.534 151.102 C 207.876 151.846 206.221 152.597 206.208 152.61 C 206.197 152.624 204.964 153.242 203.735 153.852 C 202.505 154.469 201.281 155.078 201.281 155.078 C 201.281 155.078 199.796 156.043 198.306 157.007 C 196.816 157.971 195.324 158.935 195.309 158.935 C 195.296 158.935 193.859 159.89 192.425 160.848 C 190.992 161.804 189.559 162.758 189.559 162.758 C 189.559 162.758 188.737 163.39 187.907 164.029 C 187.076 164.669 186.239 165.321 186.213 165.362 C 186.186 165.407 185.523 165.969 184.859 166.527 C 184.197 167.084 183.539 167.633 183.524 167.645 C 183.511 167.66 183.438 168.113 183.384 168.585 C 183.326 169.057 183.281 169.547 183.32 169.629 C 183.36 169.718 183.326 170.414 183.295 171.099 C 183.265 171.787 183.231 172.462 183.274 172.504 C 183.312 172.551 184.022 173.664 184.721 174.769 C 185.421 175.875 186.108 176.967 186.108 176.967 L 188.56 179.182 L 191.01 181.391 L 190.316 175.111 L 189.626 168.829 C 189.626 168.829 191.039 167.777 192.453 166.727 C 193.868 165.675 195.285 164.627 195.299 164.633 C 195.324 164.648 197.251 163.482 199.18 162.311 C 201.112 161.14 203.052 159.959 203.113 159.944 C 203.171 159.929 206.184 158.638 209.181 157.347 C 212.18 156.058 215.161 154.771 215.161 154.771 C 215.161 154.771 217.134 154.219 219.114 153.673 C 221.099 153.123 223.091 152.58 223.129 152.595 C 223.169 152.61 224.758 152.33 226.336 152.046 C 227.912 151.76 229.482 151.472 229.482 151.472 L 232.557 151.663 L 235.633 151.856 C 235.633 151.856 237.218 152.328 238.81 152.798 C 240.4 153.27 241.993 153.742 242.008 153.742 C 242.021 153.742 243.495 154.838 244.971 155.931 C 246.442 157.028 247.919 158.12 247.932 158.12 C 247.946 158.12 249.22 159.563 250.499 161.004 C 251.778 162.443 253.057 163.884 253.086 163.884 C 253.11 163.884 254.105 165.57 255.097 167.257 C 256.091 168.948 257.084 170.648 257.111 170.676 C 257.137 170.706 257.504 171.946 257.87 173.18 C 258.233 174.416 258.599 175.643 258.625 175.643 C 258.65 175.643 258.697 174.045 258.742 172.444 C 258.783 170.848 258.824 169.246 258.839 169.246 C 258.852 169.246 258.905 167.47 258.953 165.696 C 259.001 163.918 259.046 162.142 259.046 162.142 C 259.046 162.142 261.634 162.152 264.188 162.152 C 266.739 162.152 269.256 162.142 269.115 162.104 Z M 248.523 179.971 L 247.623 179.236 L 246.72 178.496 L 243.461 179.416 L 240.205 180.337 L 237.293 181.431 L 234.382 182.525 L 231.174 183.17 L 227.969 183.813 L 223.719 184.216 L 219.468 184.615 L 213.539 184.047 L 207.608 183.48 L 203.743 182.076 L 199.88 180.673 L 196.755 178.337 L 193.629 175.998 L 191.4 173.403 L 189.17 170.807 L 186.597 172.478 L 184.026 174.147 L 186.722 177.605 L 189.418 181.063 L 192.605 183.446 L 195.792 185.83 L 199.464 187.197 L 203.133 188.564 L 207.934 189.445 L 212.739 190.322 C 212.739 190.322 215.461 190.226 218.202 190.132 C 220.943 190.036 223.706 189.939 223.791 189.939 C 223.874 189.939 226.69 189.111 229.485 188.282 C 232.282 187.456 235.059 186.627 235.059 186.627 C 235.059 186.627 236.893 185.804 238.745 184.982 C 240.593 184.161 242.46 183.339 242.514 183.339 C 242.57 183.339 244.169 182.699 245.706 181.956 C 247.244 181.218 248.72 180.373 248.523 179.971 Z M 205.158 167.341 L 207.337 165.593 L 209.515 163.846 L 212.221 162.376 L 214.926 160.905 L 218.439 159.816 L 221.95 158.725 L 225.452 158.085 L 228.949 157.443 L 232.638 158.061 L 236.327 158.677 L 239.494 159.854 L 242.658 161.032 C 242.658 161.032 243.774 161.804 244.892 162.578 C 246.012 163.349 247.134 164.122 247.147 164.122 C 247.162 164.122 247.822 164.912 248.479 165.702 C 249.137 166.489 249.792 167.278 249.792 167.278 C 249.792 167.278 250.041 167.892 250.288 168.516 C 250.535 169.142 250.784 169.777 250.784 169.825 C 250.784 169.873 250.266 170.537 249.748 171.186 C 249.231 171.838 248.715 172.475 248.715 172.475 L 247.307 173.706 L 245.902 174.938 C 245.902 174.938 244.714 175.172 243.521 175.409 C 242.326 175.643 241.13 175.877 241.115 175.877 C 241.099 175.877 240.25 175.881 239.406 175.887 C 238.559 175.89 237.717 175.896 237.717 175.896 L 236.318 175.811 L 234.917 175.728 L 234.094 175.476 L 233.268 175.222 L 232.617 174.856 L 231.964 174.493 C 231.964 174.493 232.201 174.358 232.447 174.222 C 232.693 174.09 232.949 173.956 232.975 173.956 C 233.006 173.956 233.524 173.802 234.041 173.646 C 234.558 173.493 235.071 173.339 235.083 173.339 C 235.096 173.339 235.636 173.238 236.169 173.136 C 236.706 173.032 237.237 172.931 237.237 172.931 C 237.237 172.931 237.767 172.748 238.311 172.567 C 238.854 172.383 239.407 172.205 239.451 172.205 C 239.498 172.205 239.96 171.928 240.416 171.652 C 240.872 171.376 241.323 171.099 241.337 171.099 C 241.352 171.099 241.712 170.835 242.066 170.549 C 242.42 170.267 242.768 169.961 242.75 169.882 C 242.738 169.801 242.87 169.468 242.987 169.111 C 243.102 168.753 243.198 168.372 243.11 168.195 C 243.022 168.017 242.58 167.696 242.122 167.398 C 241.665 167.1 241.194 166.819 241.046 166.723 C 240.899 166.628 240.345 166.393 239.811 166.174 C 239.28 165.957 238.775 165.752 238.731 165.723 C 238.686 165.692 238.052 165.384 237.421 165.086 C 236.794 164.789 236.173 164.501 236.154 164.513 C 236.135 164.521 235.269 164.324 234.414 164.118 C 233.561 163.915 232.724 163.707 232.762 163.704 C 232.803 163.698 231.889 163.581 230.975 163.459 C 230.062 163.336 229.15 163.207 229.195 163.182 C 229.238 163.159 228.159 163.209 227.085 163.263 C 226.012 163.317 224.95 163.378 225.03 163.362 C 225.114 163.347 224.1 163.51 223.063 163.675 C 222.026 163.84 220.969 164.005 220.958 163.999 C 220.947 163.992 220.046 164.138 219.128 164.281 C 218.212 164.428 217.274 164.575 217.195 164.575 C 217.113 164.575 216.261 164.894 215.426 165.207 C 214.593 165.518 213.776 165.821 213.771 165.792 C 213.765 165.758 212.933 166.033 212.101 166.309 C 211.27 166.581 210.436 166.858 210.425 166.837 C 210.413 166.813 209.351 167.15 208.29 167.495 C 207.227 167.84 206.166 168.195 206.15 168.213 C 206.137 168.228 205.811 168.005 205.525 167.781 C 205.243 167.558 205.003 167.33 205.158 167.341 Z M 322.992 167.182 L 321.365 166.852 L 319.736 166.521 L 317.73 166.537 L 315.726 166.552 L 312.237 167.156 L 308.747 167.762 C 308.747 167.762 307.184 168.246 305.62 168.735 C 304.055 169.224 302.489 169.718 302.481 169.733 C 302.475 169.746 301.279 170.364 300.085 170.976 C 298.891 171.585 297.7 172.196 297.7 172.196 L 296.126 173.67 L 294.547 175.147 L 292.529 177.902 L 290.516 180.657 L 292.75 179.891 L 294.979 179.125 L 296.441 177.905 L 297.903 176.688 L 299.577 175.698 L 301.248 174.706 C 301.248 174.706 302.169 174.283 303.098 173.861 C 304.026 173.44 304.967 173.015 305.008 173.019 C 305.053 173.021 306.087 172.785 307.112 172.551 C 308.137 172.313 309.154 172.079 309.16 172.079 C 309.168 172.079 310.123 171.942 311.086 171.807 C 312.047 171.674 313.014 171.541 313.033 171.55 C 313.054 171.556 314.077 171.537 315.125 171.522 C 316.171 171.51 317.239 171.504 317.341 171.543 C 317.443 171.583 318.403 171.766 319.339 171.946 C 320.276 172.124 321.191 172.291 321.207 172.303 C 321.224 172.313 321.914 172.529 322.638 172.769 C 323.362 173.009 324.114 173.27 324.246 173.374 C 324.379 173.475 324.855 173.76 325.321 174.061 C 325.789 174.358 326.247 174.671 326.346 174.829 C 326.446 174.986 326.883 175.103 327.312 175.182 C 327.737 175.259 328.149 175.299 328.201 175.307 C 328.25 175.313 328.496 175.307 328.77 175.264 C 329.041 175.22 329.336 175.14 329.488 174.998 C 329.641 174.856 329.884 174.652 330.09 174.424 C 330.299 174.196 330.466 173.94 330.475 173.7 C 330.482 173.456 330.377 173.19 330.254 172.896 C 330.131 172.604 329.986 172.282 329.911 171.94 C 329.834 171.595 329.387 171.18 328.934 170.819 C 328.479 170.458 328.021 170.152 327.933 170.035 C 327.842 169.916 327.255 169.512 326.693 169.138 C 326.128 168.762 325.587 168.416 325.587 168.416 L 324.288 167.799 Z M 311.412 174.504 L 312.619 174.875 L 313.828 175.244 C 313.828 175.244 314.45 175.652 315.081 176.061 C 315.707 176.466 316.339 176.875 316.349 176.875 C 316.36 176.875 316.783 177.245 317.203 177.613 C 317.624 177.98 318.043 178.349 318.049 178.349 C 318.054 178.349 318.321 178.666 318.596 178.98 C 318.867 179.299 319.143 179.617 319.164 179.629 C 319.186 179.641 319.41 180.018 319.634 180.407 C 319.859 180.79 320.083 181.188 320.104 181.236 C 320.127 181.284 320.375 181.738 320.627 182.188 C 320.876 182.642 321.124 183.089 321.144 183.123 C 321.163 183.158 321.331 183.608 321.489 184.044 C 321.649 184.482 321.798 184.909 321.784 184.893 C 321.768 184.879 321.804 185.45 321.839 186.03 C 321.873 186.609 321.909 187.201 321.892 187.232 C 321.877 187.26 321.387 187.441 320.876 187.619 C 320.361 187.798 319.825 187.976 319.712 188 C 319.599 188.026 319.218 188.117 318.864 188.197 C 318.51 188.282 318.185 188.36 318.178 188.356 C 318.172 188.356 317.795 188.369 317.383 188.385 C 316.971 188.397 316.529 188.409 316.405 188.399 C 316.278 188.393 315.83 188.345 315.382 188.3 C 314.933 188.255 314.488 188.213 314.365 188.213 C 314.244 188.213 313.761 188.159 313.293 188.096 C 312.823 188.036 312.373 187.967 312.321 187.945 C 312.265 187.925 311.795 187.774 311.312 187.633 C 310.831 187.489 310.337 187.351 310.237 187.345 C 310.137 187.339 309.759 187.219 309.375 187.093 C 308.993 186.963 308.607 186.828 308.494 186.79 C 308.38 186.75 308.001 186.561 307.657 186.389 C 307.307 186.219 306.995 186.063 307.013 186.089 C 307.029 186.117 306.773 185.921 306.463 185.681 C 306.155 185.443 305.797 185.161 305.609 185.02 C 305.421 184.877 305.068 184.615 304.749 184.368 C 304.432 184.126 304.149 183.897 304.1 183.825 C 304.051 183.752 303.685 183.401 303.326 183.057 C 302.965 182.712 302.609 182.374 302.57 182.339 C 302.53 182.303 302.306 182.026 302.072 181.738 C 301.841 181.449 301.598 181.151 301.528 181.071 C 301.455 180.99 301.201 180.476 300.964 179.978 C 300.726 179.476 300.506 178.986 300.494 178.954 C 300.483 178.92 300.472 178.638 300.461 178.331 C 300.452 178.024 300.448 177.698 300.448 177.577 C 300.448 177.458 300.638 177.036 300.836 176.65 C 301.036 176.258 301.241 175.902 301.268 175.907 C 301.296 175.913 301.999 175.581 302.699 175.247 C 303.401 174.913 304.096 174.577 304.108 174.577 C 304.119 174.577 304.851 174.412 305.59 174.251 C 306.327 174.087 307.071 173.928 307.105 173.94 C 307.136 173.952 307.673 173.956 308.201 173.959 C 308.732 173.962 309.256 173.962 309.267 173.968 M 328.713 179.014 L 338.974 182.659 L 349.236 186.306 L 358.301 189.882 L 367.364 193.458 C 367.364 193.458 371.384 194.961 375.405 196.473 C 379.426 197.985 383.446 199.504 383.446 199.527 C 383.446 199.552 385.423 200.642 387.4 201.723 C 389.377 202.807 391.356 203.886 391.356 203.886 L 394.927 205.108 L 398.493 206.333 L 402.954 206.615 L 407.414 206.898 L 409.684 206.452 L 411.956 206.009 L 411.01 208.06 L 410.063 210.112 C 410.063 210.112 409.657 211.118 409.254 212.13 C 408.847 213.141 408.443 214.16 408.443 214.185 C 408.443 214.208 408.373 215.515 408.314 216.845 C 408.256 218.176 408.209 219.531 408.254 219.649 C 408.297 219.77 408.373 220.88 408.433 221.972 C 408.497 223.062 408.547 224.137 408.547 224.185 C 408.547 224.233 409.246 225.056 409.946 225.865 C 410.641 226.676 411.34 227.474 411.34 227.474 C 411.34 227.474 412.036 227.805 412.772 228.177 C 413.507 228.547 414.277 228.958 414.426 229.123 C 414.575 229.286 415.69 229.601 416.78 229.871 C 417.872 230.143 418.942 230.373 419.009 230.373 C 419.075 230.373 420.001 230.334 420.92 230.298 C 421.841 230.26 422.754 230.223 422.799 230.223 C 422.842 230.223 423.698 230.223 424.545 230.223 C 425.391 230.223 426.234 230.223 426.256 230.223 C 426.278 230.223 425.582 231.697 424.88 233.175 C 424.175 234.65 423.467 236.128 423.467 236.128 L 422.965 237.949 L 422.463 239.772 L 421.879 241.54 L 421.296 243.311 C 421.296 243.311 420.663 244.134 420.025 244.958 C 419.387 245.783 418.743 246.606 418.722 246.606 C 418.699 246.606 417.574 247.211 416.452 247.821 C 415.334 248.432 414.216 249.049 414.216 249.073 C 414.216 249.097 412.83 249.331 411.443 249.559 C 410.056 249.791 408.668 250.012 408.668 250.012 L 405.279 250.541 L 401.887 251.069 L 399.475 251.394 L 397.06 251.722 L 391.873 252.782 L 386.687 253.842 L 382.569 254.367 L 378.45 254.896 L 373.788 255.732 L 369.127 256.567 L 363.989 257.549 L 358.856 258.534 L 356.822 258.849 L 354.791 259.167 L 351.345 259.752 L 347.902 260.341 L 345.408 260.873 L 342.914 261.407 L 341.205 262.531 L 339.497 263.655 L 339.021 265.564 L 338.549 267.476 C 338.549 267.476 338.566 267.391 338.581 267.317 C 338.598 267.244 338.615 267.184 338.615 267.232 C 338.615 267.28 338.531 268.143 338.443 268.992 C 338.361 269.845 338.275 270.683 338.275 270.683 L 340.513 269.394 L 342.752 268.106 L 346.118 266.865 L 349.485 265.627 L 353.813 264.453 L 358.14 263.282 L 362.365 262.462 L 366.59 261.641 L 371.788 260.726 L 376.985 259.81 C 376.985 259.81 379.08 259.413 381.182 259.021 C 383.288 258.624 385.404 258.23 385.449 258.23 C 385.492 258.23 387.681 257.879 389.857 257.527 C 392.033 257.179 394.199 256.827 394.199 256.827 L 397.978 256.549 L 401.757 256.273 C 401.757 256.273 402.693 256.359 403.64 256.446 C 404.591 256.536 405.557 256.624 405.623 256.624 C 405.689 256.624 406.925 256.818 408.143 257.014 C 409.364 257.21 410.566 257.403 410.566 257.403 C 410.566 257.403 410.565 258.413 410.561 259.429 C 410.559 260.444 410.555 261.465 410.555 261.49 C 410.555 261.512 410.166 262.516 409.776 263.513 C 409.39 264.514 409 265.504 409 265.504 L 407.635 267.194 L 406.269 268.881 L 401.785 270.064 L 397.302 271.248 L 393.008 272.774 L 388.717 274.3 L 381.795 276.606 L 374.874 278.915 L 369.745 280.727 L 364.617 282.537 L 359.944 284.394 L 355.274 286.249 C 355.274 286.249 353.167 287.402 351.036 288.557 C 348.905 289.713 346.753 290.867 346.658 290.867 C 346.565 290.867 344.603 292.086 342.667 293.305 C 340.729 294.527 338.818 295.746 338.818 295.746 L 340.865 292.2 L 342.914 288.652 L 340.48 289.587 L 338.045 290.523 L 331.973 293.66 L 325.899 296.796 C 325.899 296.796 326.958 296.249 327.333 296.078 C 327.709 295.906 327.402 296.107 324.669 297.61 C 321.937 299.107 321.605 298.73 321.955 297.978 C 322.307 297.224 323.34 296.095 323.34 296.095 L 331.755 287.427 L 340.169 278.76 C 340.169 278.76 334.313 281.977 328.448 285.192 C 322.584 288.409 316.706 291.626 316.661 291.626 C 316.617 291.626 320.441 289.921 324.277 288.223 C 328.116 286.523 331.962 284.832 331.962 284.856 C 331.962 284.88 327.866 287.168 323.771 289.455 C 319.679 291.737 315.584 294.017 315.584 294.017 C 315.584 294.017 315.529 293.533 315.476 293.047 C 315.426 292.558 315.382 292.061 315.403 292.038 C 315.426 292.011 316.891 289.969 318.353 287.934 C 319.811 285.898 321.267 283.868 321.267 283.868 L 314.172 291.864 L 307.079 299.861 L 317.38 288.389 L 327.681 276.915 L 325.96 277.449 L 324.239 277.987 L 321.811 279.522 L 319.389 281.058 L 316.999 283.451 L 314.608 285.844 C 314.608 285.844 314.912 285.701 315.138 285.568 C 315.362 285.436 315.511 285.316 315.205 285.366 C 314.896 285.418 312.965 287.877 311.109 290.33 C 309.256 292.777 307.48 295.212 307.48 295.212 L 305.488 298.212 L 303.495 301.213 L 302.758 297.294 L 302.019 293.374 L 302.864 290.172 L 303.713 286.971 L 305.731 283.983 L 307.747 280.994 L 309.681 278.298 L 311.617 275.601 L 312.966 273.635 L 314.321 271.673 C 314.321 271.673 315.199 270.71 316.073 269.748 C 316.948 268.785 317.816 267.824 317.795 267.824 C 317.773 267.824 318.407 266.875 319.048 265.925 C 319.689 264.979 320.336 264.031 320.336 264.031 C 320.336 264.031 318.599 264.568 316.856 265.105 C 315.11 265.643 313.36 266.181 313.338 266.181 C 313.313 266.181 311.337 266.887 309.366 267.595 C 307.393 268.301 305.428 269.01 305.428 269.01 L 307.658 266.042 L 309.891 263.079 C 309.891 263.079 310.734 261.879 311.592 260.67 C 312.444 259.458 313.313 258.236 313.358 258.188 C 313.401 258.14 313.68 257.52 313.947 256.916 C 314.216 256.309 314.473 255.714 314.473 255.714 L 316.111 252.244 L 317.753 248.775 L 317.184 249.019 L 316.617 249.262 L 315.287 249.987 L 313.96 250.71 C 313.96 250.71 313.033 251.263 312.094 251.829 C 311.154 252.398 310.201 252.983 310.146 253.05 C 310.088 253.115 310.604 252.743 310.679 252.662 C 310.755 252.582 310.389 252.795 308.573 254.035 C 306.758 255.273 305.542 255.906 304.782 256.23 C 304.02 256.555 303.713 256.57 303.713 256.57 L 302.636 255.47 L 301.557 254.371 L 304.224 251.317 L 306.89 248.261 L 308.852 246.064 L 310.817 243.864 C 310.817 243.864 311.434 242.327 312.081 240.772 C 312.723 239.215 313.399 237.638 313.509 237.566 C 313.619 237.492 314.258 236.188 314.87 234.897 C 315.482 233.602 316.067 232.323 316.067 232.298 C 316.067 232.273 316.274 230.981 316.496 229.643 C 316.714 228.306 316.947 226.926 316.993 226.721 C 317.04 226.517 317.225 225.312 317.4 224.147 C 317.573 222.982 317.736 221.853 317.736 221.805 C 317.736 221.754 318.168 220.768 318.599 219.765 C 319.029 218.763 319.461 217.738 319.461 217.617 C 319.461 217.494 319.436 216.563 319.41 215.598 C 319.386 214.638 319.361 213.644 319.361 213.4 C 319.361 213.157 319.334 212.305 319.309 211.473 C 319.281 210.638 319.257 209.823 319.257 209.652 C 319.257 209.481 319.019 209.087 318.782 208.73 C 318.546 208.373 318.308 208.054 318.308 208.029 C 318.308 208.007 317.545 208.023 316.783 208.051 C 316.02 208.076 315.258 208.108 315.258 208.108 C 315.258 208.108 314.741 208.029 314.216 207.953 C 313.694 207.877 313.164 207.799 313.142 207.799 C 313.117 207.799 312.179 207.498 311.249 207.195 C 310.317 206.895 309.392 206.594 309.392 206.594 L 311.848 204.521 L 314.305 202.448 C 314.305 202.448 315.018 201.792 315.741 201.137 C 316.465 200.479 317.2 199.824 317.245 199.824 C 317.288 199.824 318.068 199.155 318.871 198.463 C 319.673 197.77 320.497 197.052 320.63 196.957 C 320.762 196.858 321.428 195.975 322.063 195.094 C 322.701 194.214 323.311 193.341 323.333 193.268 C 323.354 193.193 323.835 192.661 324.327 192.12 C 324.816 191.581 325.319 191.034 325.386 190.937 C 325.451 190.838 325.328 189.992 325.186 189.141 C 325.042 188.295 324.885 187.444 324.885 187.349 C 324.885 187.248 324.971 186.594 325.04 185.9 C 325.107 185.206 325.158 184.474 325.091 184.23 C 325.026 183.984 324.905 182.917 324.797 181.915 C 324.69 180.907 324.6 179.965 324.6 179.965 L 326.655 179.489 Z M 418.629 206.982 L 422.382 206.757 L 426.132 206.529 L 428.571 206.61 L 431.011 206.694 L 431.175 208.241 L 431.337 209.783 L 430.155 211.051 L 428.971 212.315 L 428.099 213.327 L 427.226 214.341 L 426.56 215.974 L 425.894 217.607 L 425.164 221.912 L 424.433 226.216 C 424.433 226.216 422.896 226.216 421.357 226.214 C 419.818 226.214 418.273 226.21 418.26 226.21 C 418.245 226.21 416.466 225.214 414.689 224.216 C 412.915 223.216 411.14 222.212 411.14 222.198 C 411.14 222.182 411.136 220.064 411.127 217.945 C 411.122 215.828 411.113 213.707 411.113 213.692 C 411.113 213.673 411.443 212.4 411.769 211.128 C 412.097 209.849 412.423 208.577 412.423 208.561 C 412.423 208.547 413.962 208.102 415.51 207.688 C 417.055 207.27 418.608 206.882 418.629 206.982 Z"/>
</svg>